<svg width="14" height="21" viewBox="0 0 14 21" fill="none" xmlns="http://www.w3.org/2000/svg">
<path d="M7.00224 3C4.13539 3 3.29693 3.00303 3.13396 3.0169C2.54563 3.06707 2.17954 3.16211 1.78069 3.36583C1.47333 3.52242 1.23092 3.70392 0.991679 3.95836C0.55598 4.42236 0.291919 4.99321 0.196326 5.67178C0.149854 6.0012 0.136332 6.06838 0.133586 7.75104C0.132532 8.31192 0.133586 9.05009 0.133586 10.0402C0.133586 12.979 0.136752 13.8383 0.150487 14.0052C0.198018 14.5925 0.287797 14.962 0.477922 15.3662C0.841273 16.1399 1.53522 16.7207 2.35276 16.9375C2.63583 17.0122 2.94848 17.0534 3.34985 17.0729C3.51991 17.0805 5.25321 17.0859 6.98756 17.0859C8.72192 17.0859 10.4563 17.0838 10.6221 17.0751C11.0869 17.0527 11.3567 17.0155 11.6551 16.9364C12.4779 16.7186 13.1592 16.1464 13.5299 15.3619C13.7164 14.9674 13.8109 14.5838 13.8537 14.0272C13.863 13.9058 13.8669 11.9708 13.8669 10.0384C13.8669 8.1056 13.8627 6.17415 13.8534 6.05278C13.8101 5.48713 13.7155 5.10678 13.5231 4.70475C13.3652 4.37566 13.1898 4.12989 12.9353 3.8786C12.481 3.43345 11.9254 3.16254 11.2634 3.06458C10.9426 3.01701 10.8787 3.00292 9.23726 3H7.00224Z" fill="#45403D"/>
<path d="M7.0025 4.70898V4.70996C8.38884 4.70996 8.56428 4.71474 9.1109 4.74023C9.6642 4.7662 10.0473 4.85625 10.3843 4.99023C10.7326 5.12867 11.0285 5.31559 11.3228 5.61719C11.6171 5.91862 11.7989 6.22235 11.9341 6.57812C12.0638 6.92192 12.1514 7.31359 12.1773 7.87988C12.2019 8.44011 12.2086 8.62029 12.2086 10.042C12.2086 11.4638 12.2019 11.6437 12.1773 12.2041C12.1578 12.6287 12.1037 12.9547 12.023 13.2363L11.9341 13.5049C11.7988 13.8607 11.6172 14.1653 11.3228 14.4668C11.0288 14.7684 10.7323 14.9552 10.3843 15.0938C10.0479 15.2278 9.66515 15.3178 9.11188 15.3438C8.56496 15.3693 8.38959 15.375 7.0025 15.375C5.61529 15.375 5.43914 15.3693 4.89215 15.3438C4.33921 15.3178 3.95699 15.2277 3.62067 15.0938C3.27284 14.9552 2.97527 14.7685 2.68121 14.4668C2.38691 14.1653 2.20585 13.8608 2.07086 13.5049C1.94049 13.161 1.85215 12.7703 1.82672 12.2041C1.80195 11.6437 1.79645 11.4638 1.79645 10.042C1.79645 8.62039 1.80228 8.44001 1.82672 7.87988C1.85159 7.31372 1.94 6.92221 2.07086 6.57812C2.20615 6.22242 2.38782 5.91867 2.68219 5.61719C2.97634 5.31564 3.27276 5.12873 3.62067 4.99023C3.95681 4.85624 4.33911 4.76623 4.89215 4.74023C5.43898 4.71473 5.61537 4.70996 7.00153 4.70996V4.70898H7.0025ZM6.44391 5.85059C5.58056 5.85204 5.39593 5.85896 4.94391 5.87988C4.45743 5.90281 4.19763 5.98487 4.02789 6.05273C3.80262 6.14264 3.644 6.24883 3.47516 6.42188C3.30639 6.5949 3.2035 6.7578 3.11578 6.98926C3.0496 7.16395 2.96816 7.43029 2.94586 7.92969C2.9215 8.47904 2.91657 8.64227 2.91656 10.0391C2.91656 11.4362 2.92149 11.601 2.94586 12.1504C2.96806 12.6493 3.04964 12.9154 3.11578 13.0898L3.18512 13.252C3.25917 13.4035 3.34854 13.5274 3.47516 13.6572C3.64394 13.8302 3.8028 13.9357 4.02789 14.0254C4.19792 14.093 4.4575 14.1762 4.94391 14.1992C5.47981 14.2242 5.63974 14.2295 7.0025 14.2295C8.36507 14.2295 8.5255 14.2242 9.0611 14.1992C9.54763 14.1764 9.8076 14.0942 9.97711 14.0264L10.1353 13.9551C10.2826 13.8795 10.4032 13.787 10.5298 13.6572C10.6986 13.4843 10.8016 13.3221 10.8892 13.0908L10.941 12.9404C10.9927 12.7685 11.0424 12.5249 11.0591 12.1504C11.0835 11.601 11.0884 11.437 11.0884 10.041C11.0884 8.6448 11.0835 8.4801 11.0591 7.93066C11.0369 7.43176 10.9554 7.16563 10.8892 6.99121L10.8199 6.8291C10.7458 6.67735 10.6566 6.55277 10.5298 6.42285C10.361 6.24973 10.2024 6.14436 9.97711 6.05469C9.80719 5.98708 9.54744 5.90463 9.0611 5.88184C8.52542 5.85689 8.36514 5.85156 7.0025 5.85156H6.44391V5.85059ZM7.0025 7.25488C8.50823 7.25488 9.72516 8.50491 9.72516 10.042C9.72514 11.5791 8.50819 12.8291 7.0025 12.8291C5.49697 12.8289 4.28084 11.579 4.28082 10.042C4.28082 8.50499 5.49693 7.25505 7.0025 7.25488ZM7.0025 8.39746C6.12008 8.39763 5.40094 9.13151 5.40094 10.042C5.40096 10.9524 6.12009 11.6864 7.0025 11.6865C7.88495 11.6865 8.60502 10.9525 8.60504 10.042C8.60504 9.13141 7.88496 8.39746 7.0025 8.39746Z" fill="white" stroke="white" stroke-width="0.2"/>
</svg>
