<svg width="40" height="71" viewBox="0 0 40 71" fill="none" xmlns="http://www.w3.org/2000/svg">
<path d="M2.63566 29.5563L19.6947 57.8633L36.7537 29.5563C38.481 26.561 39.39 23.164 39.3894 19.7063C39.3887 16.2487 38.4785 12.852 36.7501 9.85729C35.0216 6.86261 32.5358 4.37532 29.5422 2.64512C26.5485 0.914912 23.1524 0.00267977 19.6947 0C16.237 0.00267977 12.8409 0.914912 9.8472 2.64512C6.85355 4.37532 4.36772 6.86261 2.63929 9.85729C0.91085 12.852 0.000636919 16.2487 0 19.7063C-0.000636251 23.164 0.908329 26.561 2.63566 29.5563Z" fill="#FF4433"/>
<path d="M19.6965 26.8659C24.2598 26.8659 27.9592 23.1666 27.9592 18.6033C27.9592 14.0399 24.2598 10.3406 19.6965 10.3406C15.1331 10.3406 11.4338 14.0399 11.4338 18.6033C11.4338 23.1666 15.1331 26.8659 19.6965 26.8659Z" fill="white"/>
<circle cx="19.6948" cy="67.3999" r="2.7769" fill="#FF4433"/>
</svg>
