<svg width="14" height="20" viewBox="0 0 14 20" fill="none" xmlns="http://www.w3.org/2000/svg">
<g clip-path="url(#clip0_100_1040)">
<mask id="mask0_100_1040" style="mask-type:luminance" maskUnits="userSpaceOnUse" x="0" y="3" width="14" height="14">
<path d="M14 3H0V17H14V3Z" fill="white"/>
</mask>
<g mask="url(#mask0_100_1040)">
<path d="M6.71273 17H7.29567C10.4602 17 12.0428 17 13.0256 16.0172C14.0084 15.0344 14 13.4524 14 10.2957V9.70433C14 6.54815 14 4.9656 13.0256 3.9828C12.0512 3 10.4602 3 7.29567 3H6.71273C3.54761 3 1.9656 3 0.9828 3.9828C-6.25849e-07 4.9656 0 6.54703 0 9.70433V10.2957C0 13.4524 -6.25849e-07 15.0344 0.9828 16.0172C1.9656 17 3.54761 17 6.71273 17Z" fill="#45403D"/>
<path d="M7.51261 13.094C4.35589 13.094 2.44014 10.9039 2.36566 7.2644H3.96446C4.01431 9.93786 5.23061 11.0724 6.16304 11.3037V7.2644H7.69574V9.57104C8.5951 9.47137 9.53592 8.42192 9.85286 7.2644H11.3598C11.1185 8.68849 10.0942 9.73792 9.36958 10.1708C10.0942 10.5208 11.2601 11.437 11.7098 13.094H10.0528C9.70279 11.9863 8.84486 11.1284 7.69574 11.0119V13.094H7.51261Z" fill="white"/>
</g>
</g>
<defs>
<clipPath id="clip0_100_1040">
<rect width="14" height="14" fill="white" transform="translate(0 3)"/>
</clipPath>
</defs>
</svg>
